<mxfile host="app.diagrams.net" agent="Mozilla/5.0 (Windows NT 10.0; Win64; x64) AppleWebKit/537.36 (KHTML, like Gecko) Chrome/135.0.0.0 Safari/537.36" version="26.2.10">
  <diagram name="Page-1" id="97916047-d0de-89f5-080d-49f4d83e522f">
    <mxGraphModel dx="1313" dy="828" grid="1" gridSize="10" guides="1" tooltips="1" connect="1" arrows="1" fold="1" page="1" pageScale="1.5" pageWidth="3300" pageHeight="2339" background="none" math="0" shadow="0">
      <root>
        <mxCell id="0" />
        <mxCell id="1" parent="0" />
        <mxCell id="2" value="«Norge bør ikke satse mer på opprustning av autonome våpen.»" style="rounded=1;fillColor=#fff2cc;strokeColor=#d6b656;shadow=1;fontStyle=1;fontSize=14;" parent="1" vertex="1">
          <mxGeometry x="548" y="220" width="448" height="60" as="geometry" />
        </mxCell>
        <mxCell id="hGJrG1NqVIESyf2mDqUu-56" value="Autonomi vil stille menneskeheten over etiske dilemmaer" style="rounded=1;whiteSpace=wrap;html=1;fillColor=#dae8fc;strokeColor=#6c8ebf;" vertex="1" parent="1">
          <mxGeometry x="200" y="440" width="120" height="60" as="geometry" />
        </mxCell>
        <mxCell id="hGJrG1NqVIESyf2mDqUu-89" value="" style="edgeStyle=orthogonalEdgeStyle;rounded=0;orthogonalLoop=1;jettySize=auto;html=1;" edge="1" parent="1" source="hGJrG1NqVIESyf2mDqUu-57" target="2">
          <mxGeometry relative="1" as="geometry" />
        </mxCell>
        <mxCell id="hGJrG1NqVIESyf2mDqUu-57" value="&lt;span style=&quot;font-size:11.0pt;line-height:107%;&lt;br/&gt;font-family:&amp;quot;Calibri&amp;quot;,sans-serif;mso-ascii-theme-font:minor-latin;mso-fareast-font-family:&lt;br/&gt;Calibri;mso-fareast-theme-font:minor-latin;mso-hansi-theme-font:minor-latin;&lt;br/&gt;mso-bidi-font-family:&amp;quot;Times New Roman&amp;quot;;mso-bidi-theme-font:minor-bidi;&lt;br/&gt;mso-ansi-language:NO-BOK;mso-fareast-language:EN-US;mso-bidi-language:AR-SA&quot;&gt;Det&lt;br/&gt;er ikke sikkert at opprustning av autonomi gjør verdien trygg&lt;/span&gt;" style="rounded=1;whiteSpace=wrap;html=1;fillColor=#dae8fc;strokeColor=#6c8ebf;" vertex="1" parent="1">
          <mxGeometry x="657" y="370" width="230" height="60" as="geometry" />
        </mxCell>
        <mxCell id="hGJrG1NqVIESyf2mDqUu-59" value="Etiske dilemmaer er noe vi vil unngå&amp;nbsp;" style="rounded=1;whiteSpace=wrap;html=1;fillColor=#dae8fc;strokeColor=#6c8ebf;" vertex="1" parent="1">
          <mxGeometry x="370" y="440" width="120" height="60" as="geometry" />
        </mxCell>
        <mxCell id="hGJrG1NqVIESyf2mDqUu-61" value="" style="endArrow=classic;startArrow=classic;html=1;rounded=0;entryX=0.5;entryY=0;entryDx=0;entryDy=0;exitX=0.5;exitY=0;exitDx=0;exitDy=0;" edge="1" parent="1" source="hGJrG1NqVIESyf2mDqUu-56" target="hGJrG1NqVIESyf2mDqUu-59">
          <mxGeometry width="50" height="50" relative="1" as="geometry">
            <mxPoint x="290" y="380" as="sourcePoint" />
            <mxPoint x="400" y="380" as="targetPoint" />
            <Array as="points">
              <mxPoint x="260" y="390" />
              <mxPoint x="340" y="390" />
              <mxPoint x="430" y="390" />
            </Array>
          </mxGeometry>
        </mxCell>
        <mxCell id="hGJrG1NqVIESyf2mDqUu-62" value="" style="endArrow=classic;html=1;rounded=0;exitX=0.5;exitY=1;exitDx=0;exitDy=0;" edge="1" parent="1" source="2">
          <mxGeometry width="50" height="50" relative="1" as="geometry">
            <mxPoint x="620" y="340" as="sourcePoint" />
            <mxPoint x="350" y="390" as="targetPoint" />
            <Array as="points">
              <mxPoint x="750" y="330" />
              <mxPoint x="350" y="320" />
            </Array>
          </mxGeometry>
        </mxCell>
        <mxCell id="hGJrG1NqVIESyf2mDqUu-63" value="&lt;span style=&quot;font-size: 14.6667px;&quot;&gt;Bruk av makt kan bli mer fistende&lt;/span&gt;" style="rounded=1;whiteSpace=wrap;html=1;fillColor=#dae8fc;strokeColor=#6c8ebf;" vertex="1" parent="1">
          <mxGeometry x="1620" y="360" width="230" height="60" as="geometry" />
        </mxCell>
        <mxCell id="hGJrG1NqVIESyf2mDqUu-79" value="" style="edgeStyle=orthogonalEdgeStyle;rounded=0;orthogonalLoop=1;jettySize=auto;html=1;" edge="1" parent="1" source="hGJrG1NqVIESyf2mDqUu-67" target="hGJrG1NqVIESyf2mDqUu-70">
          <mxGeometry relative="1" as="geometry" />
        </mxCell>
        <mxCell id="hGJrG1NqVIESyf2mDqUu-67" value="«Autonome våpen gjør det vanskelig å overholde krigens folkerett.»" style="rounded=1;whiteSpace=wrap;html=1;fillColor=#dae8fc;strokeColor=#6c8ebf;" vertex="1" parent="1">
          <mxGeometry x="2170" y="395" width="230" height="60" as="geometry" />
        </mxCell>
        <mxCell id="hGJrG1NqVIESyf2mDqUu-130" style="edgeStyle=orthogonalEdgeStyle;rounded=0;orthogonalLoop=1;jettySize=auto;html=1;entryX=0.25;entryY=1;entryDx=0;entryDy=0;" edge="1" parent="1" source="hGJrG1NqVIESyf2mDqUu-68" target="hGJrG1NqVIESyf2mDqUu-67">
          <mxGeometry relative="1" as="geometry">
            <Array as="points">
              <mxPoint x="2025" y="500" />
              <mxPoint x="2228" y="500" />
            </Array>
          </mxGeometry>
        </mxCell>
        <mxCell id="hGJrG1NqVIESyf2mDqUu-68" value="&lt;span style=&quot;font-size: 14.6667px;&quot;&gt;Norge har pliktet seg å følge krigens folkerett&lt;/span&gt;" style="rounded=1;whiteSpace=wrap;html=1;fillColor=#dae8fc;strokeColor=#6c8ebf;" vertex="1" parent="1">
          <mxGeometry x="1910" y="530" width="230" height="60" as="geometry" />
        </mxCell>
        <mxCell id="hGJrG1NqVIESyf2mDqUu-128" value="" style="edgeStyle=orthogonalEdgeStyle;rounded=0;orthogonalLoop=1;jettySize=auto;html=1;" edge="1" parent="1" source="hGJrG1NqVIESyf2mDqUu-69" target="hGJrG1NqVIESyf2mDqUu-67">
          <mxGeometry relative="1" as="geometry" />
        </mxCell>
        <mxCell id="hGJrG1NqVIESyf2mDqUu-69" value="&lt;span style=&quot;font-size: 14.6667px;&quot;&gt;&amp;nbsp;Med autonomi vil ansvarspulverisering bli et alvorlig problem&amp;nbsp;&lt;/span&gt;" style="rounded=1;whiteSpace=wrap;html=1;fillColor=#dae8fc;strokeColor=#6c8ebf;" vertex="1" parent="1">
          <mxGeometry x="2170" y="530" width="230" height="60" as="geometry" />
        </mxCell>
        <mxCell id="hGJrG1NqVIESyf2mDqUu-70" value="«Norge bør ikke satse mer på opprustning av autonome våpen.»" style="rounded=1;fillColor=#fff2cc;strokeColor=#d6b656;shadow=1;fontStyle=1;fontSize=14;" vertex="1" parent="1">
          <mxGeometry x="1982" y="265" width="448" height="60" as="geometry" />
        </mxCell>
        <mxCell id="hGJrG1NqVIESyf2mDqUu-71" value="&lt;span style=&quot;font-size: 14.6667px;&quot;&gt;Autonome våpen gjør maktbruk mer uforutsigbart&lt;/span&gt;" style="rounded=1;whiteSpace=wrap;html=1;fillColor=#dae8fc;strokeColor=#6c8ebf;" vertex="1" parent="1">
          <mxGeometry x="2450" y="540" width="230" height="60" as="geometry" />
        </mxCell>
        <mxCell id="hGJrG1NqVIESyf2mDqUu-124" style="edgeStyle=orthogonalEdgeStyle;rounded=0;orthogonalLoop=1;jettySize=auto;html=1;entryX=0.5;entryY=1;entryDx=0;entryDy=0;" edge="1" parent="1" source="hGJrG1NqVIESyf2mDqUu-72" target="hGJrG1NqVIESyf2mDqUu-63">
          <mxGeometry relative="1" as="geometry" />
        </mxCell>
        <mxCell id="hGJrG1NqVIESyf2mDqUu-72" value="Det senker terskelen for vold og krigføring" style="rounded=1;whiteSpace=wrap;html=1;fillColor=#dae8fc;strokeColor=#6c8ebf;" vertex="1" parent="1">
          <mxGeometry x="1418" y="580" width="230" height="55" as="geometry" />
        </mxCell>
        <mxCell id="hGJrG1NqVIESyf2mDqUu-82" value="Mennesker kommer til å bruke autonomi uansvarlig" style="whiteSpace=wrap;html=1;fillColor=#dae8fc;strokeColor=#6c8ebf;rounded=1;" vertex="1" parent="1">
          <mxGeometry x="2300" y="650" width="130" height="60" as="geometry" />
        </mxCell>
        <mxCell id="hGJrG1NqVIESyf2mDqUu-95" value="«Norge bør ikke satse mer på opprustning av autonome våpen.»" style="rounded=1;fillColor=#fff2cc;strokeColor=#d6b656;shadow=1;fontStyle=1;fontSize=14;" vertex="1" parent="1">
          <mxGeometry x="970" y="910" width="448" height="60" as="geometry" />
        </mxCell>
        <mxCell id="hGJrG1NqVIESyf2mDqUu-111" style="edgeStyle=orthogonalEdgeStyle;rounded=0;orthogonalLoop=1;jettySize=auto;html=1;exitX=0.5;exitY=0;exitDx=0;exitDy=0;entryX=0.5;entryY=1;entryDx=0;entryDy=0;" edge="1" parent="1" source="hGJrG1NqVIESyf2mDqUu-96" target="hGJrG1NqVIESyf2mDqUu-95">
          <mxGeometry relative="1" as="geometry" />
        </mxCell>
        <mxCell id="hGJrG1NqVIESyf2mDqUu-96" value="Norge bør ikke satse på autonomi uten klare etablerte grenser" style="rounded=1;whiteSpace=wrap;html=1;fillColor=#dae8fc;strokeColor=#6c8ebf;" vertex="1" parent="1">
          <mxGeometry x="979" y="1010" width="430" height="60" as="geometry" />
        </mxCell>
        <mxCell id="hGJrG1NqVIESyf2mDqUu-97" value="avsnitt 4" style="text;html=1;align=center;verticalAlign=middle;whiteSpace=wrap;rounded=0;" vertex="1" parent="1">
          <mxGeometry x="1164" y="860" width="60" height="30" as="geometry" />
        </mxCell>
        <mxCell id="hGJrG1NqVIESyf2mDqUu-98" value="avsnitt 2" style="text;html=1;align=center;verticalAlign=middle;whiteSpace=wrap;rounded=0;" vertex="1" parent="1">
          <mxGeometry x="730" y="170" width="60" height="30" as="geometry" />
        </mxCell>
        <mxCell id="hGJrG1NqVIESyf2mDqUu-99" value="«Autonomi kan føre til tap av kontroll over maktbruk»" style="rounded=1;whiteSpace=wrap;html=1;fillColor=#dae8fc;strokeColor=#6c8ebf;" vertex="1" parent="1">
          <mxGeometry x="820" y="1145" width="120" height="60" as="geometry" />
        </mxCell>
        <mxCell id="hGJrG1NqVIESyf2mDqUu-100" value="Med autonomi svekkes muligheten til å holde noen avnsvarlige&amp;nbsp;" style="rounded=1;whiteSpace=wrap;html=1;fillColor=#dae8fc;strokeColor=#6c8ebf;" vertex="1" parent="1">
          <mxGeometry x="1044" y="1155" width="120" height="60" as="geometry" />
        </mxCell>
        <mxCell id="hGJrG1NqVIESyf2mDqUu-101" value="«Autonomi medfører etiske og juridiske utfordringer»" style="rounded=1;whiteSpace=wrap;html=1;fillColor=#dae8fc;strokeColor=#6c8ebf;" vertex="1" parent="1">
          <mxGeometry x="1230" y="1160" width="120" height="90" as="geometry" />
        </mxCell>
        <mxCell id="hGJrG1NqVIESyf2mDqUu-102" value="«Autonomi kan føre til tap av menneskeverd fordi teknologi ikke viser samme hensyn som mennesker»" style="rounded=1;whiteSpace=wrap;html=1;fillColor=#dae8fc;strokeColor=#6c8ebf;" vertex="1" parent="1">
          <mxGeometry x="1440" y="1160" width="120" height="90" as="geometry" />
        </mxCell>
        <mxCell id="hGJrG1NqVIESyf2mDqUu-103" value="" style="endArrow=none;html=1;rounded=0;" edge="1" parent="1">
          <mxGeometry width="50" height="50" relative="1" as="geometry">
            <mxPoint x="860" y="1110" as="sourcePoint" />
            <mxPoint x="1520" y="1110" as="targetPoint" />
            <Array as="points">
              <mxPoint x="920" y="1110" />
              <mxPoint x="1180" y="1110" />
            </Array>
          </mxGeometry>
        </mxCell>
        <mxCell id="hGJrG1NqVIESyf2mDqUu-104" value="" style="endArrow=classic;html=1;rounded=0;" edge="1" parent="1">
          <mxGeometry width="50" height="50" relative="1" as="geometry">
            <mxPoint x="1499" y="1160" as="sourcePoint" />
            <mxPoint x="1499" y="1110" as="targetPoint" />
          </mxGeometry>
        </mxCell>
        <mxCell id="hGJrG1NqVIESyf2mDqUu-105" value="" style="endArrow=classic;html=1;rounded=0;" edge="1" parent="1">
          <mxGeometry width="50" height="50" relative="1" as="geometry">
            <mxPoint x="1193" y="1120" as="sourcePoint" />
            <mxPoint x="1193" y="1070" as="targetPoint" />
          </mxGeometry>
        </mxCell>
        <mxCell id="hGJrG1NqVIESyf2mDqUu-106" value="" style="endArrow=classic;html=1;rounded=0;" edge="1" parent="1">
          <mxGeometry width="50" height="50" relative="1" as="geometry">
            <mxPoint x="870" y="1145" as="sourcePoint" />
            <mxPoint x="870" y="1095" as="targetPoint" />
          </mxGeometry>
        </mxCell>
        <mxCell id="hGJrG1NqVIESyf2mDqUu-107" value="" style="endArrow=classic;html=1;rounded=0;" edge="1" parent="1">
          <mxGeometry width="50" height="50" relative="1" as="geometry">
            <mxPoint x="1110" y="1155" as="sourcePoint" />
            <mxPoint x="1110" y="1105" as="targetPoint" />
          </mxGeometry>
        </mxCell>
        <mxCell id="hGJrG1NqVIESyf2mDqUu-108" value="" style="endArrow=classic;html=1;rounded=0;" edge="1" parent="1">
          <mxGeometry width="50" height="50" relative="1" as="geometry">
            <mxPoint x="1289" y="1155" as="sourcePoint" />
            <mxPoint x="1289" y="1105" as="targetPoint" />
          </mxGeometry>
        </mxCell>
        <mxCell id="hGJrG1NqVIESyf2mDqUu-64" value="&lt;span style=&quot;font-size: 14.6667px;&quot;&gt;Autonomi er mindre risiko for soldater&amp;nbsp;&lt;/span&gt;" style="rounded=1;whiteSpace=wrap;html=1;fillColor=#dae8fc;strokeColor=#6c8ebf;" vertex="1" parent="1">
          <mxGeometry x="1200" y="500" width="230" height="60" as="geometry" />
        </mxCell>
        <mxCell id="hGJrG1NqVIESyf2mDqUu-121" value="avsnitt 3" style="text;html=1;align=center;verticalAlign=middle;whiteSpace=wrap;rounded=0;" vertex="1" parent="1">
          <mxGeometry x="2220" y="210" width="60" height="30" as="geometry" />
        </mxCell>
        <mxCell id="hGJrG1NqVIESyf2mDqUu-123" style="edgeStyle=orthogonalEdgeStyle;rounded=0;orthogonalLoop=1;jettySize=auto;html=1;entryX=0.187;entryY=0.983;entryDx=0;entryDy=0;entryPerimeter=0;" edge="1" parent="1" source="hGJrG1NqVIESyf2mDqUu-64" target="hGJrG1NqVIESyf2mDqUu-63">
          <mxGeometry relative="1" as="geometry" />
        </mxCell>
        <mxCell id="hGJrG1NqVIESyf2mDqUu-125" value="«Det er problematisk at terskelen for maktbruk senkes»" style="rounded=1;whiteSpace=wrap;html=1;fillColor=#dae8fc;strokeColor=#6c8ebf;" vertex="1" parent="1">
          <mxGeometry x="1340" y="360" width="230" height="60" as="geometry" />
        </mxCell>
        <mxCell id="hGJrG1NqVIESyf2mDqUu-127" style="edgeStyle=orthogonalEdgeStyle;rounded=0;orthogonalLoop=1;jettySize=auto;html=1;exitX=0;exitY=0.5;exitDx=0;exitDy=0;exitPerimeter=0;entryX=0;entryY=0.25;entryDx=0;entryDy=0;" edge="1" parent="1" source="hGJrG1NqVIESyf2mDqUu-126" target="hGJrG1NqVIESyf2mDqUu-70">
          <mxGeometry relative="1" as="geometry" />
        </mxCell>
        <mxCell id="hGJrG1NqVIESyf2mDqUu-126" value="r" style="strokeWidth=2;html=1;shape=mxgraph.flowchart.annotation_2;align=left;labelPosition=right;pointerEvents=1;direction=south;" vertex="1" parent="1">
          <mxGeometry x="1500" y="310" width="212" height="50" as="geometry" />
        </mxCell>
        <mxCell id="hGJrG1NqVIESyf2mDqUu-129" style="edgeStyle=orthogonalEdgeStyle;rounded=0;orthogonalLoop=1;jettySize=auto;html=1;entryX=0.687;entryY=1.017;entryDx=0;entryDy=0;entryPerimeter=0;" edge="1" parent="1" source="hGJrG1NqVIESyf2mDqUu-71" target="hGJrG1NqVIESyf2mDqUu-67">
          <mxGeometry relative="1" as="geometry">
            <Array as="points">
              <mxPoint x="2565" y="500" />
              <mxPoint x="2328" y="500" />
            </Array>
          </mxGeometry>
        </mxCell>
        <mxCell id="hGJrG1NqVIESyf2mDqUu-134" value="&lt;span style=&quot;font-size: 14.6667px;&quot;&gt;Autonome våpen svekker muligheten til å holde noen ansvarlig&lt;/span&gt;" style="whiteSpace=wrap;html=1;fillColor=#dae8fc;strokeColor=#6c8ebf;rounded=1;" vertex="1" parent="1">
          <mxGeometry x="2120" y="650" width="160" height="60" as="geometry" />
        </mxCell>
        <mxCell id="hGJrG1NqVIESyf2mDqUu-135" value="" style="strokeWidth=2;html=1;shape=mxgraph.flowchart.annotation_2;align=left;labelPosition=right;pointerEvents=1;rotation=90;" vertex="1" parent="1">
          <mxGeometry x="2260" y="570" width="50" height="100" as="geometry" />
        </mxCell>
        <mxCell id="hGJrG1NqVIESyf2mDqUu-148" value="" style="edgeStyle=orthogonalEdgeStyle;rounded=0;orthogonalLoop=1;jettySize=auto;html=1;" edge="1" parent="1" source="hGJrG1NqVIESyf2mDqUu-136" target="hGJrG1NqVIESyf2mDqUu-147">
          <mxGeometry relative="1" as="geometry" />
        </mxCell>
        <mxCell id="hGJrG1NqVIESyf2mDqUu-136" value="«Norge bør ikke satse mer på opprustning av autonome våpen.»" style="rounded=1;fillColor=#fff2cc;strokeColor=#d6b656;shadow=1;fontStyle=1;fontSize=14;" vertex="1" parent="1">
          <mxGeometry x="1952" y="910" width="448" height="60" as="geometry" />
        </mxCell>
        <mxCell id="hGJrG1NqVIESyf2mDqUu-137" value="avsnitt 5" style="text;html=1;align=center;verticalAlign=middle;whiteSpace=wrap;rounded=0;" vertex="1" parent="1">
          <mxGeometry x="2160" y="870" width="60" height="30" as="geometry" />
        </mxCell>
        <mxCell id="hGJrG1NqVIESyf2mDqUu-138" value="Det er stor risiko for at autonome våpen blir brukt uansvarlig" style="rounded=1;whiteSpace=wrap;html=1;fillColor=#dae8fc;strokeColor=#6c8ebf;" vertex="1" parent="1">
          <mxGeometry x="2015" y="1027.5" width="120" height="60" as="geometry" />
        </mxCell>
        <mxCell id="hGJrG1NqVIESyf2mDqUu-146" value="" style="edgeStyle=orthogonalEdgeStyle;rounded=0;orthogonalLoop=1;jettySize=auto;html=1;" edge="1" parent="1" source="hGJrG1NqVIESyf2mDqUu-139" target="hGJrG1NqVIESyf2mDqUu-145">
          <mxGeometry relative="1" as="geometry" />
        </mxCell>
        <mxCell id="hGJrG1NqVIESyf2mDqUu-139" value="Teknologien blir billigere" style="whiteSpace=wrap;html=1;fillColor=#dae8fc;strokeColor=#6c8ebf;rounded=1;" vertex="1" parent="1">
          <mxGeometry x="1910" y="1262.5" width="130" height="60" as="geometry" />
        </mxCell>
        <mxCell id="hGJrG1NqVIESyf2mDqUu-142" value="&lt;br&gt;Økt tilgjengelighet øker risikoen for uansvarlig bruk&lt;div&gt;&lt;br/&gt;&lt;/div&gt;" style="whiteSpace=wrap;html=1;fillColor=#dae8fc;strokeColor=#6c8ebf;rounded=1;" vertex="1" parent="1">
          <mxGeometry x="2090" y="1137.5" width="130" height="60" as="geometry" />
        </mxCell>
        <mxCell id="hGJrG1NqVIESyf2mDqUu-145" value="Teknologien blir mer tilgjengelig" style="whiteSpace=wrap;html=1;fillColor=#dae8fc;strokeColor=#6c8ebf;rounded=1;" vertex="1" parent="1">
          <mxGeometry x="1910" y="1142.5" width="130" height="60" as="geometry" />
        </mxCell>
        <mxCell id="hGJrG1NqVIESyf2mDqUu-147" value="" style="strokeWidth=2;html=1;shape=mxgraph.flowchart.annotation_2;align=left;labelPosition=right;pointerEvents=1;direction=south;" vertex="1" parent="1">
          <mxGeometry x="1990" y="1090" width="170" height="47.5" as="geometry" />
        </mxCell>
        <mxCell id="hGJrG1NqVIESyf2mDqUu-149" value="«Norge bør ikke satse mer på opprustning av autonome våpen.»" style="rounded=1;fillColor=#fff2cc;strokeColor=#d6b656;shadow=1;fontStyle=1;fontSize=14;" vertex="1" parent="1">
          <mxGeometry x="2730" y="910" width="448" height="60" as="geometry" />
        </mxCell>
        <mxCell id="hGJrG1NqVIESyf2mDqUu-150" value="avsnitt 6&lt;div&gt;&lt;br&gt;&lt;/div&gt;" style="text;html=1;align=center;verticalAlign=middle;whiteSpace=wrap;rounded=0;" vertex="1" parent="1">
          <mxGeometry x="2924" y="860" width="60" height="30" as="geometry" />
        </mxCell>
        <mxCell id="hGJrG1NqVIESyf2mDqUu-159" value="" style="edgeStyle=orthogonalEdgeStyle;rounded=0;orthogonalLoop=1;jettySize=auto;html=1;" edge="1" parent="1" source="hGJrG1NqVIESyf2mDqUu-151" target="hGJrG1NqVIESyf2mDqUu-149">
          <mxGeometry relative="1" as="geometry" />
        </mxCell>
        <mxCell id="hGJrG1NqVIESyf2mDqUu-151" value="Norge er ikke godt nok regulert til bruk at autonome verktøy" style="rounded=1;whiteSpace=wrap;html=1;fillColor=#dae8fc;strokeColor=#6c8ebf;" vertex="1" parent="1">
          <mxGeometry x="2710" y="1070" width="180" height="60" as="geometry" />
        </mxCell>
        <mxCell id="hGJrG1NqVIESyf2mDqUu-152" value="Krigens folkerett sine grunnleggende begrensninger vil ikke bli tatt hensyn til av autnome våpen" style="rounded=1;whiteSpace=wrap;html=1;fillColor=#dae8fc;strokeColor=#6c8ebf;" vertex="1" parent="1">
          <mxGeometry x="2940" y="1217.5" width="210" height="60" as="geometry" />
        </mxCell>
        <mxCell id="hGJrG1NqVIESyf2mDqUu-154" value="Et &quot;godt regulert&quot; system bør følge krigens folkerett og en internasjonal enighet om andre begrensninger&amp;nbsp;" style="rounded=1;whiteSpace=wrap;html=1;fillColor=#dae8fc;strokeColor=#6c8ebf;" vertex="1" parent="1">
          <mxGeometry x="2450" y="1217.5" width="210" height="60" as="geometry" />
        </mxCell>
        <mxCell id="hGJrG1NqVIESyf2mDqUu-155" value="Verden har enda ikke kommet itl enighet om internasjonale begrensninger&amp;nbsp;" style="rounded=1;whiteSpace=wrap;html=1;fillColor=#dae8fc;strokeColor=#6c8ebf;" vertex="1" parent="1">
          <mxGeometry x="2700" y="1215" width="210" height="60" as="geometry" />
        </mxCell>
        <mxCell id="hGJrG1NqVIESyf2mDqUu-157" value="" style="strokeWidth=2;html=1;shape=mxgraph.flowchart.annotation_1;align=left;pointerEvents=1;direction=south;" vertex="1" parent="1">
          <mxGeometry x="2560" y="1160" width="510" height="50" as="geometry" />
        </mxCell>
        <mxCell id="hGJrG1NqVIESyf2mDqUu-158" value="" style="endArrow=classic;html=1;rounded=0;entryX=-0.4;entryY=0.529;entryDx=0;entryDy=0;entryPerimeter=0;" edge="1" parent="1" target="hGJrG1NqVIESyf2mDqUu-157">
          <mxGeometry width="50" height="50" relative="1" as="geometry">
            <mxPoint x="2800" y="1220" as="sourcePoint" />
            <mxPoint x="2850" y="1170" as="targetPoint" />
          </mxGeometry>
        </mxCell>
        <mxCell id="hGJrG1NqVIESyf2mDqUu-160" value="«Norge bør ikke satse mer på opprustning av autonome våpen.»" style="rounded=1;fillColor=#fff2cc;strokeColor=#d6b656;shadow=1;fontStyle=1;fontSize=14;" vertex="1" parent="1">
          <mxGeometry x="1010" y="1490" width="448" height="60" as="geometry" />
        </mxCell>
        <mxCell id="hGJrG1NqVIESyf2mDqUu-161" value="&lt;div&gt;avsnitt 7&lt;/div&gt;" style="text;html=1;align=center;verticalAlign=middle;whiteSpace=wrap;rounded=0;" vertex="1" parent="1">
          <mxGeometry x="1140" y="1430" width="60" height="30" as="geometry" />
        </mxCell>
        <mxCell id="hGJrG1NqVIESyf2mDqUu-166" value="" style="edgeStyle=orthogonalEdgeStyle;rounded=0;orthogonalLoop=1;jettySize=auto;html=1;" edge="1" parent="1" source="hGJrG1NqVIESyf2mDqUu-163" target="hGJrG1NqVIESyf2mDqUu-164">
          <mxGeometry relative="1" as="geometry" />
        </mxCell>
        <mxCell id="hGJrG1NqVIESyf2mDqUu-163" value="&amp;nbsp;«120 land har støttet juridisk bindende avtale.»" style="rounded=1;whiteSpace=wrap;html=1;fillColor=#dae8fc;strokeColor=#6c8ebf;" vertex="1" parent="1">
          <mxGeometry x="680" y="1750" width="260" height="50" as="geometry" />
        </mxCell>
        <mxCell id="hGJrG1NqVIESyf2mDqUu-164" value="«Det er ønskelig å ha menneskelig kontroll over maktbruk med autonome våpen.»" style="rounded=1;whiteSpace=wrap;html=1;fillColor=#dae8fc;strokeColor=#6c8ebf;" vertex="1" parent="1">
          <mxGeometry x="680" y="1620" width="260" height="50" as="geometry" />
        </mxCell>
        <mxCell id="hGJrG1NqVIESyf2mDqUu-165" value="&lt;p class=&quot;&quot; data-end=&quot;292&quot; data-start=&quot;281&quot;&gt;&lt;span style=&quot;background-color: transparent; color: light-dark(rgb(0, 0, 0), rgb(255, 255, 255));&quot; data-end=&quot;393&quot; data-start=&quot;295&quot;&gt;Tidligere teknologier har vært mulige å kontrollere&amp;nbsp;&lt;/span&gt;&lt;/p&gt;" style="rounded=1;whiteSpace=wrap;html=1;fillColor=#dae8fc;strokeColor=#6c8ebf;" vertex="1" parent="1">
          <mxGeometry x="1660" y="1729" width="260" height="50" as="geometry" />
        </mxCell>
        <mxCell id="hGJrG1NqVIESyf2mDqUu-167" value="«Ny teknologi fører til svekket kontroll over maktmisbruk»" style="rounded=1;whiteSpace=wrap;html=1;fillColor=#dae8fc;strokeColor=#6c8ebf;" vertex="1" parent="1">
          <mxGeometry x="1340" y="1729" width="260" height="34" as="geometry" />
        </mxCell>
        <mxCell id="hGJrG1NqVIESyf2mDqUu-168" value="«Ny teknologi kan gjøre det vanskeligere å opprettholde menneskelig kontroll over maktbruk.»" style="rounded=1;whiteSpace=wrap;html=1;fillColor=#dae8fc;strokeColor=#6c8ebf;" vertex="1" parent="1">
          <mxGeometry x="1490" y="1620" width="300" height="50" as="geometry" />
        </mxCell>
        <mxCell id="hGJrG1NqVIESyf2mDqUu-174" value="" style="edgeStyle=orthogonalEdgeStyle;rounded=0;orthogonalLoop=1;jettySize=auto;html=1;" edge="1" parent="1" source="hGJrG1NqVIESyf2mDqUu-170" target="hGJrG1NqVIESyf2mDqUu-165">
          <mxGeometry relative="1" as="geometry" />
        </mxCell>
        <mxCell id="hGJrG1NqVIESyf2mDqUu-170" value="&lt;span style=&quot;text-align: left;&quot;&gt;Man har hatt kontroll over hva systemer skal angripe, når og hvor og hvor lenge de skal operere&lt;/span&gt;" style="rounded=1;whiteSpace=wrap;html=1;fillColor=#dae8fc;strokeColor=#6c8ebf;" vertex="1" parent="1">
          <mxGeometry x="1530" y="1860" width="260" height="50" as="geometry" />
        </mxCell>
        <mxCell id="hGJrG1NqVIESyf2mDqUu-175" value="" style="edgeStyle=orthogonalEdgeStyle;rounded=0;orthogonalLoop=1;jettySize=auto;html=1;" edge="1" parent="1" source="hGJrG1NqVIESyf2mDqUu-171" target="hGJrG1NqVIESyf2mDqUu-165">
          <mxGeometry relative="1" as="geometry">
            <mxPoint x="1820" y="1790" as="targetPoint" />
            <Array as="points">
              <mxPoint x="1940" y="1820" />
              <mxPoint x="1820" y="1820" />
            </Array>
          </mxGeometry>
        </mxCell>
        <mxCell id="hGJrG1NqVIESyf2mDqUu-171" value="&lt;span style=&quot;text-align: left;&quot;&gt;brukeren har vær tpå samme sted som systemene og har kunnet begrense innvirknignene av våpensystemene i sanntid&lt;/span&gt;" style="rounded=1;whiteSpace=wrap;html=1;fillColor=#dae8fc;strokeColor=#6c8ebf;" vertex="1" parent="1">
          <mxGeometry x="1880" y="1860" width="260" height="50" as="geometry" />
        </mxCell>
        <mxCell id="hGJrG1NqVIESyf2mDqUu-186" value="" style="edgeStyle=orthogonalEdgeStyle;rounded=0;orthogonalLoop=1;jettySize=auto;html=1;" edge="1" parent="1" source="hGJrG1NqVIESyf2mDqUu-178" target="hGJrG1NqVIESyf2mDqUu-179">
          <mxGeometry relative="1" as="geometry" />
        </mxCell>
        <mxCell id="hGJrG1NqVIESyf2mDqUu-178" value="«Autonome våpen er ikke lenger avhengige av at mennesket er til stede eller gir løpende instrukser»" style="rounded=1;whiteSpace=wrap;html=1;fillColor=#dae8fc;strokeColor=#6c8ebf;" vertex="1" parent="1">
          <mxGeometry x="1210" y="1970" width="260" height="80" as="geometry" />
        </mxCell>
        <mxCell id="hGJrG1NqVIESyf2mDqUu-184" style="edgeStyle=orthogonalEdgeStyle;rounded=0;orthogonalLoop=1;jettySize=auto;html=1;entryX=0.5;entryY=1;entryDx=0;entryDy=0;" edge="1" parent="1" source="hGJrG1NqVIESyf2mDqUu-179" target="hGJrG1NqVIESyf2mDqUu-167">
          <mxGeometry relative="1" as="geometry" />
        </mxCell>
        <mxCell id="hGJrG1NqVIESyf2mDqUu-179" value="«Ny teknologi gjør autonome våpen mindre avhengige av mennesker, slik at de kan operere selvstendig over lang tid og på stor avstand.»" style="rounded=1;whiteSpace=wrap;html=1;fillColor=#dae8fc;strokeColor=#6c8ebf;" vertex="1" parent="1">
          <mxGeometry x="1210" y="1830" width="260" height="80" as="geometry" />
        </mxCell>
        <mxCell id="hGJrG1NqVIESyf2mDqUu-185" value="" style="strokeWidth=2;html=1;shape=mxgraph.flowchart.annotation_2;align=left;labelPosition=right;pointerEvents=1;rotation=90;" vertex="1" parent="1">
          <mxGeometry x="1612.5" y="1537.5" width="50" height="325" as="geometry" />
        </mxCell>
      </root>
    </mxGraphModel>
  </diagram>
</mxfile>
